<svg width="32" height="32" viewBox="0 0 32 32" fill="none" xmlns="http://www.w3.org/2000/svg">
<g id="icons8-shiba-inu">
<path id="Vector" d="M4.48006 12.7275C3.33006 13.77 2.56006 15.2925 2.56006 18.125V28.025C2.56006 28.8525 3.10756 30.08 4.62006 30.08H7.84506L7.84006 29.435C7.83256 28.64 7.50756 27.2425 6.40006 26.85V24.2525C7.86756 23.72 9.34256 22.49 9.69256 22.1C10.3951 21.4475 13.7376 21.8575 16.6401 22.6375L16.6426 28.0725C16.7001 28.88 17.3251 30.08 18.8026 30.08H21.7176L21.7576 29.4825C21.7701 29.34 21.8351 28.0475 21.1226 27.285C20.9401 27.09 20.7226 26.945 20.4801 26.855V22.6575C21.1626 22.04 23.1076 20.0925 23.6851 17.555C23.9626 16.31 24.9226 12.5825 25.0751 11.995C25.1526 11.9025 25.5651 11.52 27.0076 11.52C28.1226 11.52 29.0576 10.885 29.6376 9.7325C29.6551 9.6975 29.6576 9.6925 30.0326 8.765L30.2826 8.145L27.2551 7.065C27.1826 6.135 26.6151 4.8775 24.7751 4.5225C24.8826 4.1125 24.9601 3.545 24.9601 2.56V1.53L24.0351 1.9875C23.9276 2.04 21.3301 3.3375 20.0351 4.985C20.0351 4.985 19.4676 5.6875 19.4476 5.715C19.3826 5.8 18.7926 6.6 18.7151 6.7125C18.6701 6.77 17.8626 7.9925 17.5151 8.655C17.3851 8.93 17.2226 9.1925 17.0301 9.4375C16.0551 10.695 14.6276 10.8625 14.0676 10.88C14.0726 10.96 14.0626 11.37 14.0626 11.37C13.8501 12.9825 13.0551 14.2775 12.5301 15.135C12.4426 15.275 12.2801 15.5425 12.1976 15.7L12.0376 18.1625L9.57506 17.2125L9.55256 17.2025L9.52756 17.1925C8.22006 16.625 7.85006 14.9025 7.67506 13.4675C7.67006 13.425 7.14756 10.5475 8.16756 10.4075C8.21256 10.4075 9.12256 9.995 9.07756 13.3275C9.26756 14.89 9.50256 15.785 10.0376 16.0175L10.8726 16.34L10.9326 15.4325C10.9426 15.2775 11.2301 14.8075 11.4401 14.4625C11.9376 13.6525 12.6176 12.545 12.7951 11.2025L12.8001 11.1175C12.8001 8.515 10.7226 6.4 8.16756 6.4C5.70006 6.4 3.84006 8.1225 3.84006 10.4075C3.84006 10.4075 3.81756 12.2825 4.48006 12.7275Z" fill="white"/>
</g>
</svg>
