<svg width="19" height="21" viewBox="0 0 19 21" fill="none" xmlns="http://www.w3.org/2000/svg">
<path d="M16.375 5H14.375C14.375 2.24 12.135 0 9.375 0C6.615 0 4.375 2.24 4.375 5H2.375C1.275 5 0.375 5.9 0.375 7V19C0.375 20.1 1.275 21 2.375 21H16.375C17.475 21 18.375 20.1 18.375 19V7C18.375 5.9 17.475 5 16.375 5ZM9.375 2C11.035 2 12.375 3.34 12.375 5H6.375C6.375 3.34 7.715 2 9.375 2ZM16.375 19H2.375V7H16.375V19ZM9.375 11C7.715 11 6.375 9.66 6.375 8H4.375C4.375 10.76 6.615 13 9.375 13C12.135 13 14.375 10.76 14.375 8H12.375C12.375 9.66 11.035 11 9.375 11Z" fill="#60607B"/>
</svg>
